<mxfile host="65bd71144e">
    <diagram id="AnMDn8guutcr-QvqUZM-" name="Page-1">
        <mxGraphModel dx="1031" dy="1667" grid="0" gridSize="10" guides="1" tooltips="1" connect="1" arrows="1" fold="1" page="0" pageScale="1" pageWidth="850" pageHeight="1100" math="0" shadow="0">
            <root>
                <mxCell id="0"/>
                <mxCell id="1" parent="0"/>
                <mxCell id="68" value="A SatoriÂ Node" style="swimlane;horizontal=0;" parent="1" vertex="1">
                    <mxGeometry x="140" y="-960" width="900" height="640" as="geometry">
                        <mxRectangle x="140" y="-960" width="30" height="100" as="alternateBounds"/>
                    </mxGeometry>
                </mxCell>
                <mxCell id="76" value="Engine" style="swimlane;horizontal=0;" parent="68" vertex="1">
                    <mxGeometry x="280" y="240" width="580" height="360" as="geometry">
                        <mxRectangle x="260" y="270" width="30" height="60" as="alternateBounds"/>
                    </mxGeometry>
                </mxCell>
                <mxCell id="21" value="&lt;font color=&quot;#ffff66&quot;&gt;predictions&lt;/font&gt;" style="edgeStyle=none;html=1;entryX=0.25;entryY=1;entryDx=0;entryDy=0;strokeColor=#FFFF66;exitX=0.75;exitY=0;exitDx=0;exitDy=0;" parent="76" source="5" target="3" edge="1">
                    <mxGeometry relative="1" as="geometry">
                        <mxPoint as="offset"/>
                    </mxGeometry>
                </mxCell>
                <mxCell id="74" value="&lt;font color=&quot;#ffccff&quot;&gt;current inputs&lt;/font&gt;" style="edgeStyle=none;html=1;entryX=0.75;entryY=1;entryDx=0;entryDy=0;fontColor=#CCFFCC;startArrow=none;startFill=0;endArrow=classic;endFill=1;strokeColor=#FFCCFF;exitX=0.75;exitY=0;exitDx=0;exitDy=0;" parent="76" source="5" target="2" edge="1">
                    <mxGeometry x="0.3333" relative="1" as="geometry">
                        <mxPoint as="offset"/>
                    </mxGeometry>
                </mxCell>
                <mxCell id="14" value="&lt;font color=&quot;#9999ff&quot;&gt;new inputs&lt;br&gt;(entire history)&lt;/font&gt;" style="edgeStyle=none;html=1;entryX=0.75;entryY=0;entryDx=0;entryDy=0;exitX=0.75;exitY=1;exitDx=0;exitDy=0;strokeColor=#9999FF;" parent="76" source="4" target="6" edge="1">
                    <mxGeometry relative="1" as="geometry">
                        <mxPoint as="offset"/>
                    </mxGeometry>
                </mxCell>
                <mxCell id="73" value="&lt;font color=&quot;#ffccff&quot;&gt;current inputs&lt;/font&gt;" style="edgeStyle=none;html=1;exitX=0.25;exitY=0;exitDx=0;exitDy=0;entryX=0.25;entryY=1;entryDx=0;entryDy=0;fontColor=#CCFFCC;startArrow=none;startFill=0;endArrow=classic;endFill=1;strokeColor=#FFCCFF;" parent="76" source="6" target="4" edge="1">
                    <mxGeometry x="0.3333" relative="1" as="geometry">
                        <mxPoint as="offset"/>
                    </mxGeometry>
                </mxCell>
                <mxCell id="11" value="&lt;font color=&quot;#ccffcc&quot;&gt;updates&lt;/font&gt;" style="endArrow=classic;html=1;exitX=0.25;exitY=1;exitDx=0;exitDy=0;entryX=0.25;entryY=0;entryDx=0;entryDy=0;strokeColor=#CCFFCC;" parent="76" source="2" target="5" edge="1">
                    <mxGeometry width="50" height="50" relative="1" as="geometry">
                        <mxPoint x="270" y="310" as="sourcePoint"/>
                        <mxPoint x="320" y="260" as="targetPoint"/>
                        <mxPoint as="offset"/>
                    </mxGeometry>
                </mxCell>
                <mxCell id="77" value="DataManager" style="swimlane;horizontal=0;" parent="76" vertex="1">
                    <mxGeometry x="60" y="20" width="500" height="120" as="geometry"/>
                </mxCell>
                <mxCell id="2" value="&lt;font color=&quot;#ccffcc&quot;&gt;Subscriber&lt;/font&gt;" style="rounded=1;whiteSpace=wrap;html=1;strokeColor=#CCFFCC;" parent="77" vertex="1">
                    <mxGeometry x="40" y="30" width="120" height="60" as="geometry"/>
                </mxCell>
                <mxCell id="3" value="&lt;font color=&quot;#ffff66&quot;&gt;Publisher&lt;/font&gt;" style="rounded=1;whiteSpace=wrap;html=1;strokeColor=#FFFF66;" parent="77" vertex="1">
                    <mxGeometry x="200" y="30" width="120" height="60" as="geometry"/>
                </mxCell>
                <mxCell id="4" value="&lt;font color=&quot;#9999ff&quot;&gt;Scholar&lt;/font&gt;" style="rounded=1;whiteSpace=wrap;html=1;strokeColor=#9999FF;" parent="77" vertex="1">
                    <mxGeometry x="360" y="30" width="120" height="60" as="geometry"/>
                </mxCell>
                <mxCell id="78" value="ModelManager" style="swimlane;horizontal=0;" parent="76" vertex="1">
                    <mxGeometry x="60" y="220" width="500" height="120" as="geometry"/>
                </mxCell>
                <mxCell id="5" value="Predictor" style="rounded=1;whiteSpace=wrap;html=1;" parent="78" vertex="1">
                    <mxGeometry x="40" y="30" width="120" height="60" as="geometry"/>
                </mxCell>
                <mxCell id="6" value="Explorer" style="rounded=1;whiteSpace=wrap;html=1;" parent="78" vertex="1">
                    <mxGeometry x="360" y="30" width="120" height="60" as="geometry"/>
                </mxCell>
                <mxCell id="13" value="&lt;font color=&quot;#ff6666&quot;&gt;models&lt;/font&gt;" style="edgeStyle=none;html=1;strokeColor=#FF6666;" parent="78" source="6" target="5" edge="1">
                    <mxGeometry relative="1" as="geometry"/>
                </mxCell>
                <mxCell id="54" value="&lt;font color=&quot;#ffff66&quot;&gt;predictions&lt;/font&gt;" style="edgeStyle=none;html=1;startArrow=none;startFill=0;endArrow=classic;endFill=1;exitX=0.75;exitY=0;exitDx=0;exitDy=0;entryX=0.5;entryY=1;entryDx=0;entryDy=0;strokeColor=#FFFF66;" parent="68" source="3" target="88" edge="1">
                    <mxGeometry x="0.0623" relative="1" as="geometry">
                        <mxPoint x="1" as="offset"/>
                        <mxPoint x="713.4000000000001" y="158.91999999999996" as="targetPoint"/>
                    </mxGeometry>
                </mxCell>
                <mxCell id="53" value="&lt;font color=&quot;#9999ff&quot;&gt;history requests&lt;/font&gt;" style="edgeStyle=none;html=1;exitX=0.25;exitY=0;exitDx=0;exitDy=0;startArrow=none;startFill=0;endArrow=classic;endFill=1;entryX=0.75;entryY=1;entryDx=0;entryDy=0;strokeColor=#9999FF;" parent="68" source="4" target="88" edge="1">
                    <mxGeometry x="0.44" y="6" relative="1" as="geometry">
                        <mxPoint as="offset"/>
                        <mxPoint x="770" y="160" as="targetPoint"/>
                    </mxGeometry>
                </mxCell>
                <mxCell id="52" value="&lt;font color=&quot;#9999ff&quot;&gt;histories&lt;/font&gt;" style="edgeStyle=none;html=1;entryX=0.75;entryY=0;entryDx=0;entryDy=0;startArrow=none;startFill=0;endArrow=classic;endFill=1;strokeColor=#9999FF;exitX=1;exitY=1;exitDx=0;exitDy=0;" parent="68" source="88" target="4" edge="1">
                    <mxGeometry x="-0.0622" y="-1" relative="1" as="geometry">
                        <mxPoint as="offset"/>
                        <mxPoint x="820" y="160" as="sourcePoint"/>
                    </mxGeometry>
                </mxCell>
                <mxCell id="33" value="&lt;font color=&quot;#ffff66&quot;&gt;publish stream&lt;/font&gt;" style="edgeStyle=none;html=1;endArrow=classic;endFill=1;startArrow=none;startFill=0;exitX=0.25;exitY=0;exitDx=0;exitDy=0;entryX=0.25;entryY=1;entryDx=0;entryDy=0;strokeColor=#FFFF66;" parent="68" source="3" target="88" edge="1">
                    <mxGeometry x="0.3988" y="9" relative="1" as="geometry">
                        <mxPoint as="offset"/>
                        <mxPoint x="670" y="160" as="targetPoint"/>
                    </mxGeometry>
                </mxCell>
                <mxCell id="81" value="NodeJs Server" style="swimlane;horizontal=0;" parent="68" vertex="1">
                    <mxGeometry x="540" y="40" width="320" height="120" as="geometry"/>
                </mxCell>
                <mxCell id="65" value="Streamr Light Client" style="rounded=1;whiteSpace=wrap;html=1;" parent="81" vertex="1">
                    <mxGeometry x="40" y="20" width="120" height="30" as="geometry"/>
                </mxCell>
                <mxCell id="90" style="edgeStyle=none;html=1;" parent="81" source="88" target="65" edge="1">
                    <mxGeometry relative="1" as="geometry"/>
                </mxCell>
                <mxCell id="95" style="edgeStyle=none;html=1;" edge="1" parent="81" source="88" target="94">
                    <mxGeometry relative="1" as="geometry"/>
                </mxCell>
                <mxCell id="88" value="Exposed Streamr and GraphQL API" style="rounded=1;whiteSpace=wrap;html=1;" parent="81" vertex="1">
                    <mxGeometry x="40" y="70" width="260" height="30" as="geometry"/>
                </mxCell>
                <mxCell id="94" value="GraphQL Client" style="rounded=1;whiteSpace=wrap;html=1;" vertex="1" parent="81">
                    <mxGeometry x="180" y="20" width="120" height="30" as="geometry"/>
                </mxCell>
                <mxCell id="82" value="Disk Interface" style="swimlane;horizontal=0;" parent="68" vertex="1">
                    <mxGeometry x="60" y="360" width="180" height="240" as="geometry"/>
                </mxCell>
                <mxCell id="83" value="Parquet Manager" style="rounded=1;whiteSpace=wrap;html=1;" parent="82" vertex="1">
                    <mxGeometry x="40" y="40" width="120" height="60" as="geometry"/>
                </mxCell>
                <mxCell id="86" value="Model Saver" style="rounded=1;whiteSpace=wrap;html=1;" parent="82" vertex="1">
                    <mxGeometry x="40" y="140" width="120" height="60" as="geometry"/>
                </mxCell>
                <mxCell id="85" style="edgeStyle=none;html=1;fontColor=#CCFFCC;strokeColor=#FFFF66;" parent="68" source="5" target="83" edge="1">
                    <mxGeometry relative="1" as="geometry"/>
                </mxCell>
                <mxCell id="87" value="" style="edgeStyle=none;html=1;strokeColor=#FF6666;exitX=0;exitY=0.5;exitDx=0;exitDy=0;entryX=1;entryY=0.5;entryDx=0;entryDy=0;" parent="68" source="5" target="86" edge="1">
                    <mxGeometry relative="1" as="geometry">
                        <mxPoint x="700" y="590" as="sourcePoint"/>
                        <mxPoint x="500" y="590" as="targetPoint"/>
                    </mxGeometry>
                </mxCell>
                <mxCell id="55" value="&lt;font color=&quot;#ccffcc&quot;&gt;subscribe to&lt;/font&gt;" style="edgeStyle=none;html=1;exitX=0.75;exitY=0;exitDx=0;exitDy=0;startArrow=none;startFill=0;endArrow=classic;endFill=1;entryX=0;entryY=1;entryDx=0;entryDy=0;strokeColor=#CCFFCC;" parent="68" source="2" target="88" edge="1">
                    <mxGeometry x="0.0312" y="4" relative="1" as="geometry">
                        <mxPoint as="offset"/>
                        <mxPoint x="620" y="160" as="targetPoint"/>
                    </mxGeometry>
                </mxCell>
                <mxCell id="41" value="" style="shape=umlActor;verticalLabelPosition=bottom;verticalAlign=top;html=1;outlineConnect=0;" parent="1" vertex="1">
                    <mxGeometry x="440" y="-1100" width="40" height="80" as="geometry"/>
                </mxCell>
                <mxCell id="47" value="Streamr" style="ellipse;shape=cloud;whiteSpace=wrap;html=1;" parent="1" vertex="1">
                    <mxGeometry x="720" y="-1100" width="120" height="80" as="geometry"/>
                </mxCell>
                <mxCell id="49" value="Blockchain" style="ellipse;shape=cloud;whiteSpace=wrap;html=1;" parent="1" vertex="1">
                    <mxGeometry x="240" y="-1100" width="120" height="80" as="geometry"/>
                </mxCell>
                <mxCell id="64" style="edgeStyle=none;html=1;startArrow=classic;startFill=1;endArrow=classic;endFill=1;exitX=0.5;exitY=0;exitDx=0;exitDy=0;" parent="1" source="65" target="47" edge="1">
                    <mxGeometry relative="1" as="geometry"/>
                </mxCell>
                <mxCell id="67" style="edgeStyle=none;html=1;startArrow=classic;startFill=1;endArrow=classic;endFill=1;" parent="1" source="58" target="41" edge="1">
                    <mxGeometry relative="1" as="geometry"/>
                </mxCell>
                <mxCell id="59" style="edgeStyle=none;html=1;startArrow=classic;startFill=1;endArrow=classic;endFill=1;exitX=0.5;exitY=0;exitDx=0;exitDy=0;" parent="1" source="66" target="49" edge="1">
                    <mxGeometry relative="1" as="geometry"/>
                </mxCell>
                <mxCell id="80" value="Flask Server" style="swimlane;horizontal=0;" parent="1" vertex="1">
                    <mxGeometry x="200" y="-920" width="340" height="120" as="geometry"/>
                </mxCell>
                <mxCell id="66" value="Wallet" style="rounded=1;whiteSpace=wrap;html=1;" parent="80" vertex="1">
                    <mxGeometry x="40" y="30" width="120" height="60" as="geometry"/>
                </mxCell>
                <mxCell id="58" value="UI" style="rounded=1;whiteSpace=wrap;html=1;" parent="80" vertex="1">
                    <mxGeometry x="200" y="30" width="120" height="60" as="geometry"/>
                </mxCell>
                <mxCell id="37" value="&lt;font color=&quot;#ccffcc&quot;&gt;subscription updates&lt;/font&gt;" style="edgeStyle=none;html=1;entryX=1;entryY=0.5;entryDx=0;entryDy=0;startArrow=none;startFill=0;endArrow=classic;endFill=1;exitX=0;exitY=0.5;exitDx=0;exitDy=0;strokeColor=#CCFFCC;" parent="1" source="81" target="80" edge="1">
                    <mxGeometry relative="1" as="geometry">
                        <mxPoint x="760" y="-860" as="sourcePoint"/>
                        <mxPoint x="600" y="-860" as="targetPoint"/>
                    </mxGeometry>
                </mxCell>
                <mxCell id="51" value="" style="edgeStyle=none;html=1;exitX=0.5;exitY=1;exitDx=0;exitDy=0;startArrow=none;startFill=0;endArrow=classic;endFill=1;entryX=0.25;entryY=0;entryDx=0;entryDy=0;strokeColor=#CCFFCC;" parent="1" source="80" target="2" edge="1">
                    <mxGeometry x="-0.6" relative="1" as="geometry">
                        <mxPoint x="560" y="-430" as="targetPoint"/>
                        <mxPoint as="offset"/>
                        <mxPoint x="500" y="-800" as="sourcePoint"/>
                    </mxGeometry>
                </mxCell>
                <mxCell id="84" value="&lt;font color=&quot;#ccffcc&quot;&gt;subscription updates&lt;/font&gt;" style="edgeStyle=none;html=1;strokeColor=#CCFFCC;" parent="1" target="83" edge="1">
                    <mxGeometry x="-0.8313" y="26" relative="1" as="geometry">
                        <mxPoint x="370" y="-800" as="sourcePoint"/>
                        <mxPoint as="offset"/>
                    </mxGeometry>
                </mxCell>
                <mxCell id="91" value="Local&lt;br&gt;Storage" style="shape=cylinder3;whiteSpace=wrap;html=1;boundedLbl=1;backgroundOutline=1;size=15;" parent="1" vertex="1">
                    <mxGeometry x="20" y="-520" width="60" height="80" as="geometry"/>
                </mxCell>
                <mxCell id="92" style="edgeStyle=none;html=1;startArrow=classic;startFill=1;" parent="1" source="82" target="91" edge="1">
                    <mxGeometry relative="1" as="geometry"/>
                </mxCell>
                <mxCell id="96" style="edgeStyle=none;html=1;startArrow=classic;startFill=1;" edge="1" parent="1" source="94" target="97">
                    <mxGeometry relative="1" as="geometry">
                        <mxPoint x="949.0182905197144" y="-1039.4555435180664" as="targetPoint"/>
                    </mxGeometry>
                </mxCell>
                <mxCell id="97" value="GraphQL" style="ellipse;shape=cloud;whiteSpace=wrap;html=1;" vertex="1" parent="1">
                    <mxGeometry x="860" y="-1100" width="120" height="80" as="geometry"/>
                </mxCell>
            </root>
        </mxGraphModel>
    </diagram>
</mxfile>